<svg width="34" height="44" fill="none" xmlns="http://www.w3.org/2000/svg"><path d="M22.784 15.722c-.541 0-.98.455-.98 1.016v19.208c0 .561.439 1.016.98 1.016.542 0 .98-.455.98-1.016V16.738c0-.56-.438-1.016-.98-1.016zm-11.57 0c-.542 0-.98.455-.98 1.016v19.208c0 .561.438 1.016.98 1.016.541 0 .98-.455.98-1.016V16.738c0-.56-.439-1.016-.98-1.016z" fill="#000"/><path d="M2.784 12.92v25.038c0 1.48.524 2.87 1.438 3.867a4.75 4.75 0 003.503 1.57h18.55a4.748 4.748 0 003.503-1.57c.914-.997 1.438-2.387 1.438-3.867V12.919c1.817-.5 2.995-2.32 2.752-4.254-.243-1.934-1.832-3.38-3.713-3.38h-5.02v-1.27a4.068 4.068 0 00-1.131-2.85A3.783 3.783 0 0021.353 0h-8.706a3.783 3.783 0 00-2.75 1.166 4.069 4.069 0 00-1.132 2.848v1.27h-5.02c-1.88.001-3.47 1.447-3.713 3.38-.243 1.934.935 3.755 2.752 4.255zm23.49 28.442H7.726c-1.676 0-2.98-1.492-2.98-3.404v-24.95h24.51v24.95c0 1.912-1.304 3.404-2.98 3.404zM10.726 4.014a1.994 1.994 0 01.557-1.412 1.854 1.854 0 011.365-.57h8.706a1.862 1.862 0 011.365.57c.362.374.563.883.556 1.412v1.27H10.726v-1.27zm-6.98 3.303h26.51c.974 0 1.764.82 1.764 1.83 0 1.01-.79 1.829-1.764 1.829H3.745c-.974 0-1.764-.82-1.764-1.83 0-1.01.79-1.829 1.764-1.829z" fill="#000"/><path d="M16.998 15.722c-.542 0-.98.455-.98 1.016v19.208c0 .561.438 1.016.98 1.016.541 0 .98-.455.98-1.016V16.738c0-.56-.439-1.016-.98-1.016z" fill="#000"/></svg>