<svg width="151" height="151" fill="none" xmlns="http://www.w3.org/2000/svg"><path d="M113.203 50.679a6.12 6.12 0 00-8.654-.229l-39.08 37.063-18.64-19.139a6.119 6.119 0 00-8.656-.114 6.12 6.12 0 00-.114 8.656l22.854 23.465a6.102 6.102 0 004.385 1.85 6.118 6.118 0 004.214-1.679l43.463-41.219a6.12 6.12 0 00.228-8.654z" fill="#fff"/><path d="M75.5 0C33.869 0 0 33.869 0 75.5S33.869 151 75.5 151 151 117.131 151 75.5 117.131 0 75.5 0zm0 138.757c-34.879 0-63.257-28.376-63.257-63.257 0-34.879 28.378-63.257 63.257-63.257 34.881 0 63.257 28.378 63.257 63.257 0 34.881-28.376 63.257-63.257 63.257z" fill="#fff"/></svg>