<svg width="41" height="49" fill="none" xmlns="http://www.w3.org/2000/svg"><path d="M40.7 23.684a8.19 8.19 0 00-1.558-1.26c.37-.456.589-1.016.589-1.622 0-1.112-.736-2.072-1.794-2.51.15-.667.203-1.354.147-2.046a1.036 1.036 0 00-.35-.688 1.268 1.268 0 00-.766-.315 9.372 9.372 0 00-1.286.006 2.022 2.022 0 00-.089-.2l.15-.09 3.41-2.162c.467-.297.578-.88.248-1.3a6.029 6.029 0 00-.332-.386 5.729 5.729 0 00.92-1.545c.166-.423.03-.888-.35-1.186a1.228 1.228 0 00-.242-.146 6.366 6.366 0 00-.593-.237c.308-.944.325-1.929.017-2.833a1.087 1.087 0 00-.363-.502 1.269 1.269 0 00-.605-.255 5.671 5.671 0 00-.814-.058c-.794 0-1.584.16-2.322.457a5.515 5.515 0 00-.353-.513 1.164 1.164 0 00-.199-.198 1.3 1.3 0 00-.799-.269 1.34 1.34 0 00-.554.12 6.58 6.58 0 00-1.737 1.168 6.777 6.777 0 00-.602-.285 1.134 1.134 0 00-.436-.086c-.404 0-.775.213-.943.541l-.84 1.636a4.9 4.9 0 00-.41-.212c.488-1.24.277-2.462-.604-3.247-.56-.498-1.319-.762-2.194-.762-.435 0-.887.067-1.335.197-.639-1.186-1.756-1.918-3-1.918-1.203 0-2.298.695-2.946 1.823a4.87 4.87 0 00-1.448-.23c-.876 0-1.635.263-2.195.762-.852.758-1.076 1.94-.64 3.145a4.54 4.54 0 00-1.03.604 1.166 1.166 0 00-1.037-.058c-.24.102-.464.213-.678.331-.024-.024-.047-.05-.071-.073a7.309 7.309 0 00-2.174-1.498 1.397 1.397 0 00-.567-.12 1.36 1.36 0 00-.846.29 1.204 1.204 0 00-.203.208c-.183.24-.345.492-.488.755a6.867 6.867 0 00-2.275-.394c-.326 0-.65.025-.963.074-.234.036-.452.13-.632.274a1.136 1.136 0 00-.372.529c-.305.936-.297 1.947-.006 2.924a7.136 7.136 0 00-.892.35 1.293 1.293 0 00-.256.159c-.39.313-.525.8-.346 1.24a6.469 6.469 0 001.314 2.004c-.151.16-.298.33-.437.512-.334.436-.211 1.036.275 1.338l1.66 1.027c.028.409.092.813.191 1.209-1.251.352-2.162 1.401-2.162 2.64 0 .605.218 1.165.588 1.621a8.207 8.207 0 00-1.558 1.26c-.19.197-.294.448-.294.708 0 .26.104.512.294.709a8.263 8.263 0 001.869 1.445c.359.203.832.108 1.06-.214.226-.322.12-.747-.239-.95a6.794 6.794 0 01-1.335-.99c1.302-1.242 3.12-1.95 5.032-1.95 1.524 0 2.986.45 4.177 1.26l-5.061.001c-.424 0-.768.309-.768.69 0 .38.344.688.768.688h5.06c-1.19.81-2.652 1.261-4.176 1.261-.187 0-.377-.007-.565-.02-.422-.032-.792.251-.827.63-.034.38.28.712.703.743a9.357 9.357 0 002.441-.141l5.964 6.757c-.748.03-1.284.568-1.284 1.303v4.84c0 .756.567 1.305 1.35 1.305.221 0 .445-.045.665-.133l1.766-.712-.381 1.005c-.137.36.078.752.479.875.402.123.837-.07.975-.43l.594-1.564-.885 5.844h-1.335l.439-1.156c.137-.36-.078-.752-.48-.874-.4-.124-.837.07-.974.43l-.62 1.632a.929.929 0 00.136.93c.21.265.552.416.937.416h9.319c.385 0 .726-.151.937-.416a.929.929 0 00.136-.93l-2.17-5.711 1.642.66c.22.09.445.134.665.134.393 0 .748-.142.998-.4.231-.238.353-.55.353-.905v-4.84c0-.712-.504-1.24-1.217-1.3l5.907-6.756c.567.107 1.15.163 1.74.163h.001c2.455 0 4.783-.956 6.387-2.62a1.02 1.02 0 00.294-.709c0-.26-.103-.511-.293-.708zm-3.213-4.044c.425.247.708.675.708 1.162 0 .36-.154.687-.405.933a9.13 9.13 0 00-1.35-.426 7.406 7.406 0 001.047-1.67zm-.92-3.036c.057 1.657-.63 3.264-1.91 4.467a9.367 9.367 0 00-2.176.175l1.697-1.522a.64.64 0 000-.975.83.83 0 00-1.086 0l-1.337 1.2a2.829 2.829 0 00-.526-1.298c.08-.079.16-.157.243-.232 1.356-1.217 3.17-1.867 5.096-1.815zm-1.71-2.771a4.049 4.049 0 01-.264.153 3.96 3.96 0 00-.336-.194c.352-.99.167-1.962-.537-2.606a2.472 2.472 0 00-.08-.07c.705-.209 1.361-.291 1.961-.242a3.39 3.39 0 012.24 1.067l-2.984 1.891zm2.55-8.09c.166.615.127 1.278-.093 1.92a7.413 7.413 0 00-1.813.018 5.465 5.465 0 00-.217-1.585 4.458 4.458 0 012.123-.352zm-4.146-.446c.4.59.638 1.276.693 2.002.03.386.005.771-.073 1.146a.653.653 0 00.25.645c.205.16.488.212.745.135a5.64 5.64 0 011.257-.22 5.47 5.47 0 012.303.345c-.135.29-.31.569-.513.832a5.027 5.027 0 00-2.183-.68c-.707-.058-1.457.015-2.243.214.076-.73.02-1.404-.173-2.019a4.103 4.103 0 00-1.048-1.713c.298-.266.632-.499.985-.687zm-2.991.99c.82.433 1.337 1.02 1.576 1.782.199.639.2 1.385.004 2.228-.184.083-.37.172-.557.266a4.382 4.382 0 00-.37.071 3.115 3.115 0 00-1.045-1.105c.006-.065.01-.13.01-.194 0-.494-.168-.967-.47-1.392l.852-1.656zm-1.797 4.21c.533.006 1.046.494 1.279 1.214a.72.72 0 00.43.44.847.847 0 00.651-.016 2.511 2.511 0 011.013-.237c.228 0 .55.044.778.254.374.342.357 1.008-.043 1.658a.628.628 0 00-.043.583.74.74 0 00.473.404c.507.151.901.407 1.108.697a8.66 8.66 0 00-3.952 2.156l-.099-.066a5.735 5.735 0 00-.83-.435c.23-.544.353-1.1.353-1.646 0-.916-.345-1.708-.998-2.29-.653-.58-1.539-.887-2.564-.887-.57 0-1.153.095-1.724.274a4.986 4.986 0 00-.224-.4.742.742 0 01.185-.252c.218-.192.518-.232.731-.232.345 0 .74.103 1.112.289.2.1.44.115.654.04a.726.726 0 00.45-.428c.243-.67.745-1.12 1.25-1.12h.01zM20.61 24.398c-2.622 0-4.755-1.896-4.755-4.227 0-2.331 2.133-4.227 4.755-4.227 2.621 0 4.754 1.896 4.754 4.227 0 2.331-2.133 4.227-4.754 4.227zm2.023 2.818c-.48.915-1.272 1.526-2.148 1.526-.903 0-1.717-.65-2.191-1.613a7.205 7.205 0 001.161-.842c.192-.171.371-.35.54-.538a6.956 6.956 0 00.936.02c.2.236.42.463.658.674.327.292.678.55 1.044.773zm-7.967-5.213c.6 1.54 1.932 2.776 3.624 3.377-.922.79-2.074 1.259-3.1 1.259-.427 0-1.03-.085-1.482-.488-.45-.4-.545-.934-.545-1.31 0-.94.557-1.996 1.491-2.828l.012-.01zm-1.327-6.658c0-.377.094-.91.545-1.311.452-.403 1.056-.488 1.482-.488 1.058 0 2.248.498 3.183 1.33-1.728.536-3.114 1.724-3.786 3.233-.893-.821-1.424-1.849-1.424-2.764zm7.396-3.745c.902 0 1.716.65 2.19 1.613a7.214 7.214 0 00-1.16.842 6.89 6.89 0 00-.54.537 7.137 7.137 0 00-.936-.02c-.2-.236-.42-.462-.658-.674a7.249 7.249 0 00-1.044-.772c.48-.915 1.272-1.526 2.148-1.526zM18.73 9.243c0-.92.843-1.667 1.88-1.667 1.036 0 1.88.748 1.88 1.667 0 .462-.213.88-.556 1.182a3.647 3.647 0 00-2.57.064c-.388-.306-.634-.75-.634-1.246zm4.2 5.72c.922-.79 2.073-1.26 3.1-1.26.426 0 1.03.085 1.482.488.45.4.544.934.544 1.31 0 .94-.557 1.996-1.491 2.828l-.012.01c-.6-1.54-1.931-2.776-3.623-3.377zm3.527 7.27c.892.821 1.424 1.849 1.424 2.764 0 .377-.095.91-.545 1.311-.453.403-1.056.487-1.482.487-1.058 0-2.248-.497-3.183-1.33 1.727-.535 3.113-1.723 3.786-3.232zm1.013-1.042a7.055 7.055 0 00-.6-.477 5.079 5.079 0 00.022-.823 6.967 6.967 0 001.627-1.52c1.034.426 1.724 1.131 1.724 1.91 0 .805-.735 1.529-1.822 1.95a6.736 6.736 0 00-.95-1.04zM14.71 7.528a.743.743 0 00.491-.39.626.626 0 00-.025-.588c-.514-.888-.503-1.766.028-2.239.337-.3.791-.362 1.114-.362.473 0 .989.128 1.492.372.2.097.439.109.65.032a.724.724 0 00.444-.428c.343-.953 1.052-1.569 1.808-1.569.77 0 1.505.66 1.832 1.641a.721.721 0 00.434.437.85.85 0 00.651-.02c.48-.22.97-.337 1.417-.337.323 0 .777.064 1.113.363.54.48.536 1.407-.011 2.305a.626.626 0 00-.04.587.74.74 0 00.481.4c.957.273 1.61.804 1.74 1.39-.902.048-1.72.56-2.238 1.378a3.908 3.908 0 00-1.093-.162 2.86 2.86 0 00-1.368.324 2.77 2.77 0 00.395-1.418c0-1.68-1.533-3.046-3.415-3.046-1.883 0-3.416 1.367-3.416 3.046 0 .799.348 1.526.913 2.069a4.615 4.615 0 00-.887 1.174 5.822 5.822 0 00-1.855-.318c-.179 0-.353.01-.524.029.062-.15.138-.303.23-.454a.627.627 0 00.04-.588.74.74 0 00-.481-.4c-1.072-.305-1.764-.934-1.764-1.602 0-.682.742-1.334 1.845-1.626zm-4.921 3.053c.247-.826.777-1.475 1.611-1.971-.044.177-.07.359-.07.544 0 1.073.78 2.05 2.045 2.627a3.617 3.617 0 00-.244 1.02 3.188 3.188 0 00-.328.255 2.913 2.913 0 00-.83 1.24c-.208-.13-.43-.263-.664-.395-.504-.285-.999-.53-1.483-.739-.245-.975-.258-1.84-.037-2.581zM3.576 7.933c.176-.021.356-.032.537-.032a5.17 5.17 0 011.754.32 6.008 6.008 0 00-.2 1.81 8.183 8.183 0 00-2.032-.022c-.216-.697-.243-1.412-.059-2.076zm1.308 3.41c.49.025.973.104 1.437.236a.83.83 0 00.743-.143.648.648 0 00.242-.647 4.691 4.691 0 01-.1-1.307 4.687 4.687 0 01.81-2.366A5.758 5.758 0 019.52 8.2c.008.006.014.014.02.02a4.517 4.517 0 00-1.235 2.004c-.214.717-.262 1.507-.147 2.362-.922-.238-1.8-.322-2.621-.246a5.529 5.529 0 00-2.446.805 5.145 5.145 0 01-.917-1.346 6.208 6.208 0 012.71-.456zm-1.819 3.694c.72-.795 1.584-1.23 2.63-1.326 1.363-.125 2.983.333 4.796 1.356.525.297.985.596 1.356.854.047.31.131.619.25.925a3.96 3.96 0 01-.091.071c-.25.106-.488.224-.711.357-.045-.042-.088-.086-.133-.127-1.597-1.432-3.717-2.22-5.97-2.22a9.62 9.62 0 00-.612.019c-.29.019-.561.13-.765.314-.053.047-.1.099-.142.153l-.608-.376zm.363 6.698a1.303 1.303 0 01-.406-.933c0-.626.465-1.156 1.1-1.328.295.617.681 1.2 1.152 1.733a9.183 9.183 0 00-1.846.528zm3.943-2.309l2.286 2.052a9.302 9.302 0 00-2.43-.407 5.954 5.954 0 01-.224-.192c-1.352-1.213-2.08-2.866-2.022-4.572 1.926-.051 3.74.599 5.095 1.815l.09.083a3.004 3.004 0 00-.642 1.205l-1.068-.958a.831.831 0 00-1.086 0 .64.64 0 000 .974zm3.604.635c0-.804.736-1.528 1.823-1.95.268.366.586.716.95 1.04.191.17.393.33.6.479a5.063 5.063 0 00-.021.821 6.797 6.797 0 00-1.63 1.524 4.25 4.25 0 01-.658-.338c-.686-.438-1.063-.998-1.063-1.576zm-.752 7.05a8.708 8.708 0 001.713-.882c.166.338.396.641.69.902.651.58 1.537.887 2.562.887.133 0 .267-.006.401-.016l2.677 7.614-.832-.335-7.21-8.17zm8.05 11.828l-3.402 1.37v-4.55l3.402 1.37a2.055 2.055 0 000 1.81zm1.176 7.705l.96-6.345a2.826 2.826 0 00.441-.002l.96 6.347h-2.36zm.148-8.61c0-.493.454-.895 1.012-.895s1.011.402 1.011.895-.453.895-1.011.895c-.558 0-1.012-.402-1.012-.895zm5.163 8.61h-1.4l-.926-6.123 2.326 6.123zm1.586-6.335l-3.402-1.37a2.053 2.053 0 000-1.81l3.402-1.37v4.55zm-2.431-5.081l-.926.372.498-1.43c.127-.364-.098-.75-.503-.864-.405-.113-.836.09-.962.452l-.727 2.087a2.832 2.832 0 00-1.34-.008l-2.589-7.361c.032.042.063.085.096.125.79.98 1.862 1.52 3.022 1.52 1.16 0 2.233-.54 3.022-1.52.186-.23.35-.48.492-.744l.071.023-.959 2.754c-.127.363.099.75.503.863.405.114.836-.088.963-.451l1.002-2.88c.092.005.184.009.275.009 1.025 0 1.911-.307 2.563-.887.353-.315.615-.69.783-1.114a8.732 8.732 0 001.808.942l-7.092 8.112zm10.398-8.886c-1.523 0-2.985-.45-4.176-1.26h5.06c.425 0 .768-.309.768-.69 0-.38-.343-.689-.767-.689h-5.061c1.19-.81 2.653-1.26 4.176-1.26 1.912 0 3.73.707 5.032 1.95-1.302 1.242-3.12 1.95-5.032 1.95z" fill="#fff"/><path d="M20.608 17.472c-1.668 0-3.026 1.21-3.026 2.7 0 1.489 1.358 2.7 3.026 2.7 1.669 0 3.027-1.211 3.027-2.7 0-1.49-1.358-2.7-3.027-2.7zm0 4.021c-.822 0-1.49-.593-1.49-1.321 0-.73.668-1.322 1.49-1.322s1.491.593 1.491 1.322c0 .728-.669 1.321-1.49 1.321z" fill="#fff"/></svg>