<svg width="35" height="41" fill="none" xmlns="http://www.w3.org/2000/svg"><path d="M34.289 26.413a16.917 16.917 0 00-7.681-.811v-1.4l-.944.236c-3.11.782-5.729 2.7-7.202 5.211v-6.081c0-1.333.679-2.575 1.863-3.407.876-.617 1.977-.956 3.1-.956h.22c1.377 0 2.527-.834 2.858-1.954h.046c1.452 0 2.904.157 4.314.467l1.67.368v-.835c0-1.854-1.057-3.523-2.757-4.522a4.81 4.81 0 00.467-.358c.998-.877 1.549-2.045 1.549-3.286 0-1.132-.207-2.25-.614-3.324l-.472-1.244-1.18.692a7.164 7.164 0 01-2.95.928c.012-.107.032-.212.032-.32v-.752c0-1.099-.413-2.188-1.163-3.067C24.551.95 23.125.322 21.634.322c-.736 0-1.473.154-2.13.443l-.302.132-1.534-.675-.975.571c-1.432.84-3.271 1.056-4.902.577L9.941.828 8.072 4.113a5.483 5.483 0 00-.626 1.752 6.97 6.97 0 01-1.53-.658l-1.18-.691-.472 1.244a9.354 9.354 0 00-.613 3.325c0 1.242.55 2.409 1.548 3.286.147.13.305.246.467.358-1.7 1-2.756 2.668-2.756 4.522v.835l1.67-.367a20.13 20.13 0 014.314-.468h1.074c.079.143.166.283.267.416.73.963 1.951 1.538 3.268 1.538 1.406 0 2.67.687 3.3 1.793l.178.314v4.43c-1.474-2.51-4.092-4.429-7.202-5.21l-.944-.237v1.4a16.916 16.916 0 00-7.681.812l-.687.242.526 1.156c.734 1.615 2.02 2.976 3.67 3.907L3.197 29.1l1.713.904c1.95 1.029 4.181 1.572 6.453 1.572 1.35 0 2.684-.19 3.966-.566l1.652-.484v9.514h1.48v-5.608l1.652.484a14.09 14.09 0 003.967.567c2.272 0 4.504-.543 6.453-1.572l1.713-.904-1.466-1.288c1.65-.932 2.935-2.292 3.67-3.908l.526-1.156-.687-.242zm-3.337-10.016a21.835 21.835 0 00-4.403-.448h-.046c-.18-.608-.596-1.13-1.166-1.482a10.416 10.416 0 012.45-.873c.158-.035.31-.084.462-.131 1.406.551 2.399 1.641 2.703 2.934zm-12.65-6.224a8.95 8.95 0 013.57-.735h.617c.336 0 .672-.036.999-.108.28-.062.543-.155.795-.262a11.978 11.978 0 01-1.814 4.928h-.69l-3.477-3.823zM14.76 8.364v.423h-.177c-1.032 0-1.99-.45-2.562-1.206a1.065 1.065 0 01-.222-.646c0-.312.137-.604.388-.824l.29-.256 2.283 2.51zm-1.48 1.551c.417.11.855.174 1.303.174h.177v1.224c0 .479.101.944.284 1.38h-1.765V9.915zm1.483-3.632c.003-.276.032-.55.077-.82 1.574 1.294 3.458 2.24 5.499 2.784a10.407 10.407 0 00-2.979.89l-2.597-2.854zm3.12-.416l.362-.957c1.33.149 2.49.864 3.102 1.94l.19.336a13.527 13.527 0 01-3.655-1.32zM16.24 9.992l3.643 4.004h-.59c-.816 0-1.583-.28-2.159-.786-.576-.507-.894-1.181-.894-1.897v-1.32zm13.661-3.457c.272.83.41 1.685.41 2.55 0 .894-.397 1.734-1.115 2.366a3.974 3.974 0 01-1.768.88 11.94 11.94 0 00-2.968 1.082 12.914 12.914 0 001.396-5.527c.107-.134.207-.272.292-.418a8.877 8.877 0 003.753-.933zM17.516 1.877l.259-.152 1.427.628.963-.424a3.683 3.683 0 011.469-.304c1.028 0 2.01.431 2.627 1.155.558.654.866 1.466.866 2.285v.752c0 .647-.306 1.24-.807 1.665-.33-.001-.658-.021-.985-.046l-.665-1.168c-.943-1.66-2.84-2.69-4.949-2.69h-.534l-.571 1.507c-.467-.325-.91-.679-1.323-1.064a5.932 5.932 0 011.17-1.647 7.42 7.42 0 001.053-.497zM9.398 4.696l1.293-2.275.632.185c.953.28 1.963.362 2.951.276a6.747 6.747 0 00-.816 1.968l-.859-.944-1.461 1.284c-.53.466-.822 1.086-.822 1.745 0 .488.163.962.471 1.368.28.368.624.681 1.01.944v1.742l-.016-.007c-1.818-.8-2.946-2.405-2.946-4.19 0-.724.195-1.449.563-2.096zM5.132 9.085c0-.864.138-1.72.41-2.55.582.296 1.2.523 1.846.683.169 2.108 1.556 3.972 3.73 4.929l.679.298v.463a3.604 3.604 0 00-.898.461 11.94 11.94 0 00-2.885-1.039 3.976 3.976 0 01-1.768-.88c-.718-.632-1.114-1.472-1.114-2.365zm3.762 6.864c-1.481 0-2.961.15-4.403.448.304-1.294 1.297-2.383 2.702-2.935.153.047.304.096.462.132a10.43 10.43 0 012.301.796c-.235.412-.38.87-.38 1.362 0 .066.011.132.016.197h-.698zm4.609 1.953c-.82 0-1.58-.358-2.035-.957a1.962 1.962 0 01-.412-1.193c0-.968.897-1.756 1.998-1.756h2.894c.046.045.09.092.139.134.856.753 1.994 1.168 3.205 1.168h4.354c.816 0 1.48.584 1.48 1.302 0 .718-.664 1.302-1.48 1.302h-.22c-1.46 0-2.888.441-4.026 1.242a6.04 6.04 0 00-1.296 1.238c-.888-1.53-2.645-2.48-4.601-2.48zm1.358 11.872c-3.032.89-6.447.56-9.188-.887l-.087-.045 1.537-1.352-.92-.404c-1.722-.757-3.07-2.033-3.803-3.596a15.264 15.264 0 016.544-.463l1.372.202v-1.162c2.6.906 4.713 2.74 5.758 5.037l.374.824-.225-.155c-3.188-2.18-6.991-3.565-11-4.005L5.04 25.06c3.743.411 7.296 1.705 10.274 3.742l.86.588-1.313.384zm14.378 1.22l-.919.404 1.537 1.351-.086.046c-2.741 1.445-6.156 1.776-9.189.887l-1.314-.385.86-.588c2.978-2.037 6.53-3.33 10.274-3.742l-.183-1.292c-4.008.44-7.811 1.826-11 4.006l-.225.153.375-.824c1.045-2.298 3.159-4.13 5.758-5.036v1.162l1.372-.201a15.278 15.278 0 016.544.463c-.733 1.563-2.082 2.838-3.804 3.595z" fill="#fff"/></svg>