<svg width="38" height="45" fill="none" xmlns="http://www.w3.org/2000/svg"><path d="M37.1 14.473c-1.677-5.997-4.784-8.23-7.095-9.048-2.678-.947-5.068-.324-6.302.497-1.059.706-1.334 1.912-1.376 2.82l-.042-.005c.205-2.38.889-5.791 1.878-6.554a.784.784 0 00.13-1.128.854.854 0 00-1.17-.126c-.916.706-1.596 2.254-2.079 4.73a29.96 29.96 0 00-.299 1.876l-.406-4.018c-.044-.441-.452-.764-.91-.721-.457.043-.792.436-.747.877l.346 3.424a7.687 7.687 0 00-.354-.386c-.285-1.85-.873-4.085-2.085-5.766a.852.852 0 00-1.16-.201.785.785 0 00-.207 1.117c.697.968 1.158 2.187 1.462 3.391-1.356-.69-2.834-.932-4.136-.74-1.856.274-3.096 1.137-4.294 1.972-1.422.989-2.648 1.844-4.866 1.777a.819.819 0 00-.857.76.813.813 0 00.766.843c2.12.16 4.654.494 6.408.746-.812.778-1.603 1.716-2.42 2.684-1.952 2.312-3.97 4.703-6.335 4.995a.82.82 0 00-.715.657.795.795 0 00.44.853c.97.482 2.108.662 3.266.662 2.43 0 4.949-.792 6.197-1.248 1.9-.694 3.648-1.59 5.076-2.572l.24 1.739c.317 2.307 1.925 4.069 4.174 4.647-.011 1.095-.25 2.236-.815 3.674a.781.781 0 00.166.83.847.847 0 00.844.227 9.76 9.76 0 00.45-.139c.035.59.076 1.4.103 2.383-1.363-1.371-3.522-2.733-5.732-3.25-2.099-.492-3.95-.156-5.355.971a.787.787 0 00-.282.783c.064.291.29.524.586.606 2.44.673 3.248 1.56 5.018 3.501.359.394.765.84 1.223 1.324 1.402 1.48 2.604 1.892 3.507 1.892.393 0 .73-.078 1.002-.18a72.2 72.2 0 01-.72 7.833.808.808 0 00.704.91.824.824 0 00.944-.68c.262-1.747.445-3.468.57-5.107.085.052.174.1.27.146l.026.013c.304.15.729.29 1.255.29.903 0 2.105-.413 3.506-1.892.458-.484.865-.93 1.224-1.324 1.77-1.942 2.577-2.829 5.018-3.501a.815.815 0 00.586-.607.787.787 0 00-.282-.782c-1.405-1.127-3.256-1.463-5.355-.972-2.375.556-4.692 2.087-6.025 3.557a79.616 79.616 0 00-.171-6.634c1.94-1.107 3.384-2.923 4.23-5.35.646-1.853.904-4.021.728-6.104a12.57 12.57 0 00-.489-2.615c.932.27 2.213.847 3.889 2.02 4.47 3.135 4.253 6.387 4.242 6.517a.8.8 0 00.512.82.859.859 0 00.962-.236c1.104-1.308 2.197-3.668 1.132-7.478zm-14.47 21.09c.782-1.78 4.04-3.602 5.852-4.027.872-.204 1.66-.23 2.36-.08-1.646.77-2.603 1.82-3.971 3.322-.354.388-.755.828-1.203 1.3-1.075 1.137-2.087 1.594-2.775 1.255l-.04-.019c-.286-.137-.818-.393-.222-1.752zm-2.75-1.473l-.04.019c-.688.338-1.7-.119-2.775-1.255a89.587 89.587 0 01-1.202-1.3c-1.368-1.502-2.326-2.553-3.97-3.323.698-.15 1.486-.123 2.359.08 2.736.642 5.333 2.848 5.85 4.027.596 1.358.064 1.614-.222 1.752zM9.229 7.786c1.086-.757 2.112-1.471 3.571-1.687 1.166-.172 2.473.137 3.585.849.223.142.465.318.712.531.107.85.15 1.58.165 2.062-1.802-1.193-3.791-1.334-5.608-.394-.061.032-.122.067-.183.102-.76-.118-2.13-.322-3.682-.522.517-.3.988-.627 1.44-.941zm.319 9.925c-2.05.75-4.008 1.135-5.597 1.135h-.033c1.762-1.108 3.272-2.897 4.658-4.538 1.345-1.594 2.616-3.099 3.865-3.746 1.288-.666 2.605-.556 3.915.326.702.473.89 1.384.427 2.075-1.135 1.693-3.974 3.557-7.235 4.748zm7.556.457l-.373-2.712c.351-.315.666-.634.94-.954.057.35.138.721.245 1.115.246.899.487 1.71.7 2.426.371 1.247.675 2.27.85 3.23-1.118-.47-2.134-1.447-2.362-3.105zm7.44 2.87c-.533 1.53-1.578 3.419-3.61 4.538.78-2.94.183-4.95-.717-7.976-.211-.708-.45-1.51-.69-2.392-.634-2.322-.26-3.904 1.085-4.575l.058-.03c.534-.272 1.784-.91 3.366 1.139.584.755 1.015 2.188 1.155 3.833.159 1.871-.071 3.81-.647 5.462zm11.15-2.135c-.564-1.513-1.797-3.48-4.464-5.351-2.152-1.508-4.062-2.354-5.68-2.517a4.286 4.286 0 00-.178-.252 6.45 6.45 0 00-1.362-1.328c-.048-.483-.092-1.724.64-2.211 1.356-.904 3.379-.807 4.781-.311 1.942.687 4.57 2.625 6.06 7.957.42 1.5.485 2.855.203 4.013z" fill="#fff"/></svg>