<svg width="39" height="45" fill="none" xmlns="http://www.w3.org/2000/svg"><path d="M37.972 21.443c-.339-.6-1.074-.913-2.03-1.032a11.97 11.97 0 00.557-3.61c0-2.88-.662-4.878-1.973-5.964-.306-2.387-1.046-3.839-2.202-4.317-.401-.166-.988-.265-1.726.005-.216-1.29-.737-2.093-1.573-2.437a2.303 2.303 0 00-1.012-.161 10.799 10.799 0 00-2.367-1.95c-1.095-.655-2.35-1.264-3.358-.803-.776.355-1.145 1.204-1.36 2.396a7.314 7.314 0 00-.453-.311c-.305-1.452-.806-2.24-1.606-2.538-1.079-.403-2.324.243-3.862 1.336a10.85 10.85 0 00-1.198.993 2.416 2.416 0 00-1.413-.614c-1.524-.127-3.157 1.144-4.724 3.683a12.87 12.87 0 00-.724 1.35 2.312 2.312 0 00-.805.044C4.6 7.878 3.675 9.8 3.538 12.925c-.006.147-.01.298-.011.45-1.419.387-2.496 1.21-2.533 2.914-.032 1.49.271 2.974.904 4.418-.387.172-.687.412-.87.736-.574 1.014.2 2.351 2.298 3.975 1.682 1.302 4.188 2.546 7.057 3.505 1.368.499 3.636.88 6.119 1.056-1.021.282-1.85.383-2.619.476-2.394.29-4.285.52-9.004 5.093-1.836 1.779-3.016 3.224-3.508 4.296a.583.583 0 00.226.736.666.666 0 00.809-.07c.778-.734 2.148-1.612 4.071-2.61 1.77-.919 3.748-1.476 5.661-2.014 1.602-.452 3.162-.89 4.506-1.52-1.06 1.161-2.148 2.366-2.772 3.825a17.004 17.004 0 00-.73 2.004c-.385-.69-.73-1.52-.745-2.474-.005-.332-.296-.6-.646-.593-.352.004-.633.278-.629.61.026 1.712.882 3.046 1.448 3.93.143.221.266.413.341.558a.65.65 0 00.715.323.61.61 0 00.495-.584c.003-.529.167-1.534.933-3.324.558-1.303 1.606-2.45 2.62-3.56.416-.456.822-.9 1.189-1.348v10.065c0 .333.285.602.637.602.352 0 .638-.27.638-.602v-11.82c.92.416 2.205.76 3.616 1.138 1.554.416 3.162.847 4.26 1.378 1.556.753 1.957 1.145 2.057 1.279.13.172.345.267.567.252a.64.64 0 00.522-.328c.339-.632.152-1.443-.57-2.48-1.002-1.439-2.928-2.761-5.143-3.558 1.279-.194 2.383-.446 3.177-.738 2.866-.959 5.37-2.203 7.05-3.503 2.099-1.624 2.872-2.961 2.298-3.975zm-7.26-13.119a12.59 12.59 0 00-.001-.515c.433-.247.803-.31 1.102-.187.287.12.924.593 1.303 2.47a4.656 4.656 0 00-1.32-.182c-.403 0-.825.045-1.262.134.11-.586.17-1.162.178-1.72zm1.265 2.799c-3.43 1.72-6.164 4.557-7.615 7.951a.364.364 0 00.217.482.413.413 0 00.147.027.393.393 0 00.364-.231c1.493-3.495 4.416-6.371 8.06-7.952 1.358.663 2.075 2.524 2.075 5.401 0 1.21-.202 2.405-.601 3.556-2.244.058-5.085.749-7.074 1.319a28.37 28.37 0 00-3.562 1.303c-.562-1.428-1.4-2.748-2.46-3.928.702-1.575 1.792-3.045 3.17-4.271 2.716-2.417 5.384-3.735 7.279-3.657zM27.85 5.156a.837.837 0 00.033-.006c.247-.042.46-.03.631.041.614.253.95 1.388.923 3.115a9.556 9.556 0 01-.295 2.149c-1.647.629-3.458 1.792-5.32 3.449a14.088 14.088 0 00-3.12 3.959c-.58-1.908-.21-4.352.883-6.626a13.336 13.336 0 012.139-3.179c.271-.298.557-.583.857-.854 1.307-1.18 2.465-1.898 3.27-2.048zm-5.007-2.9c.23-.104.784-.062 2.12.738a9.21 9.21 0 011.67 1.295c-.868.383-1.848 1.065-2.933 2.045a12.16 12.16 0 00-.289.27 9.013 9.013 0 00-1.346-1.995c.163-1.4.424-2.19.778-2.352zm-2.945 2.09c1.09.73 1.974 1.84 2.58 3.244a14.556 14.556 0 00-1.375 1.899 13.617 13.617 0 00-.896-1.637c-.567-.884-1.142-1.625-1.715-2.215.419-.513.89-.945 1.406-1.291zm-4.126-1.327c.493-.35 1.992-1.416 2.627-1.179.19.07.53.364.792 1.504-.6.397-1.146.887-1.631 1.464-.76-.569-1.506-.861-2.216-.861a2.491 2.491 0 00-.758.117l-.015-.028c.386-.383.79-.724 1.201-1.017zm-.723 2.17c.493-.13 1.238.096 2.143.912a.625.625 0 00.056.051c.569.525 1.2 1.28 1.868 2.323a12.68 12.68 0 011.216 2.456c-.224.483-.42.978-.586 1.479-.53 1.594-.707 3.149-.533 4.541-1.41-1.049-3.034-1.917-4.808-2.566-.642-1.535-.98-3.154-.978-4.697.001-3.003.839-4.293 1.622-4.5zM8.773 6.724c1.245-2.016 2.555-3.171 3.509-3.09.588.05.991.614 1.234 1.106-.886.924-1.362 2.619-1.363 4.946 0 1.38.244 2.811.713 4.2l-.39-.105a14.495 14.495 0 00-1.241-2.513c-1.166-1.867-2.206-2.88-3.089-3.383.191-.406.4-.795.627-1.161zm-3.961 6.25c.128-2.91.931-4.126 1.64-4.294.711-.169 2.052.584 3.685 3.2.307.492.585 1.015.831 1.563a23.12 23.12 0 00-4.272-.395c-.622 0-1.268.02-1.89.09.001-.055.003-.11.006-.164zm-2.544 3.338c.016-.72.045-2.06 4.428-2.06a22 22 0 012.845.185c4.02 1.517 7.236 4.484 8.902 8.247a.394.394 0 00.362.227c.05 0 .101-.009.15-.028a.363.363 0 00.211-.485c-1.352-3.055-3.68-5.61-6.616-7.346.365.104 1.173.377 1.223.388 2.054.728 3.894 1.766 5.407 3.048.221.188 1.156 1.118 1.22 1.164 1.069 1.15 1.902 2.45 2.438 3.861a27.195 27.195 0 00-3.338 1.923c-2.271-1.552-5.31-2.976-8.05-3.761-2.077-.596-5.083-1.323-7.368-1.323-.33 0-.643.015-.938.048-.61-1.339-.905-2.712-.876-4.088zm2.67 8.746c1.847.64 3.806.97 5.768.97 1.15 0 2.302-.113 3.432-.344a.37.37 0 00.301-.44.393.393 0 00-.466-.284A16.69 16.69 0 012.82 23.315c-.666-.72-.77-1.159-.667-1.306.18-.26.765-.353.797-.363.354-.067.862-.107 1.588-.076 1.66.071 3.922.506 6.542 1.257 2.43.696 5.103 1.917 7.203 3.273-1.976.117-5.442.526-7.726 1.602-2.2-.754-4.148-1.674-5.619-2.644zm13.925 5.784v.062c-1.174 2.161-3.92 2.934-7.089 3.827-1.977.557-4.022 1.132-5.91 2.112a45.34 45.34 0 00-1.127.606c.31-.326.66-.679 1.055-1.062 4.409-4.273 6.021-4.469 8.254-4.74 1.276-.154 2.702-.327 4.817-1.214v.409zm10.662 3.035l.024.036a20.085 20.085 0 00-.954-.491c-1.21-.586-2.879-1.032-4.493-1.465-1.57-.42-3.333-.892-3.964-1.363v-.514c.442-.007.885-.021 1.324-.041a.618.618 0 00.036.002c.743.016 1.704.191 2.78.508 2.237.657 4.296 1.964 5.247 3.328zm-11.094-5.01c-2.338-.06-4.404-.314-5.895-.618 2.375-.721 5.44-.98 6.835-.985 1.456-.007 4.656.244 7.103.985-1.479.302-3.529.554-5.858.617-.346.01-1.854.01-2.185 0zM28.449 27.7c-2.252-1.063-5.666-1.471-7.74-1.595a27.192 27.192 0 013.232-1.772 27.569 27.569 0 013.98-1.506c2.62-.752 4.882-1.186 6.542-1.257.205-.01.617-.008.644-.01 1.456.027 1.714.4 1.74.449.087.151.003.564-.618 1.252a16.694 16.694 0 01-11.252 1.7.393.393 0 00-.467.283.37.37 0 00.301.44c1.13.23 2.282.344 3.433.344 2 0 3.995-.343 5.873-1.007-1.475.983-3.443 1.916-5.668 2.68z" fill="#fff"/></svg>