<svg width="40" height="41" fill="none" xmlns="http://www.w3.org/2000/svg"><path d="M29.76 1.41a9.61 9.61 0 00-3.477.647A10.648 10.648 0 0020.311.222c-2.199 0-4.25.675-5.972 1.835a9.61 9.61 0 00-3.476-.647C5.34 1.41.845 6.092.845 11.846c0 2.879 1.253 6.108 3.438 8.86 1.504 1.893 3.245 3.266 4.846 3.877-.34.415-.547.953-.547 1.54a.59.59 0 00.434.578c.286.073.408.155.55.25.206.137.406.253.727.314v3.413c0 .84.426 1.284.737 1.609.28.291.404.434.404.768s-.124.477-.404.768c-.31.324-.737.768-.737 1.608 0 .84.426 1.284.737 1.609.28.29.404.434.404.768s-.124.476-.404.767c-.31.325-.737.768-.737 1.609 0 .328.255.594.57.594.315 0 .57-.266.57-.594 0-.334.124-.477.404-.768.31-.324.737-.768.737-1.608 0-.84-.426-1.284-.737-1.609-.28-.29-.403-.434-.403-.768s.123-.476.403-.768c.311-.324.737-.768.737-1.608 0-.84-.426-1.284-.737-1.608-.28-.292-.403-.434-.403-.769v-3.413c.32-.061.52-.177.727-.315.141-.094.264-.176.55-.25a.59.59 0 00.434-.576c0-.585-.205-1.121-.543-1.536.706-.268 1.441-.688 2.186-1.252 1.245 1.172 2.55 2.02 3.772 2.456-.33.412-.53.942-.53 1.52a.59.59 0 00.434.577c.286.073.408.155.55.25.206.137.406.253.727.314v2.225c0 .84.426 1.284.737 1.609.28.291.404.434.404.768s-.124.477-.404.768c-.31.324-.737.768-.737 1.608 0 .84.426 1.284.738 1.609.28.29.403.434.403.768s-.124.476-.404.767c-.31.325-.737.768-.737 1.609 0 .328.255.594.57.594.315 0 .57-.266.57-.594 0-.334.124-.477.404-.768.311-.324.737-.768.737-1.608 0-.84-.426-1.284-.737-1.609-.28-.29-.403-.434-.403-.768s.123-.476.403-.768c.311-.324.737-.768.737-1.608 0-.84-.426-1.284-.737-1.608-.28-.292-.403-.434-.403-.769v-2.225c.32-.061.52-.177.727-.315.142-.094.264-.176.55-.25a.59.59 0 00.434-.576c0-.576-.198-1.105-.527-1.517.725-.257 1.483-.66 2.25-1.205a.61.61 0 00.15-.826.556.556 0 00-.792-.156c-1.224.869-2.387 1.328-3.363 1.328-1.822 0-4.317-1.66-6.356-4.227-2.243-2.822-3.529-6.103-3.529-9.001 0-5.678 4.435-10.298 9.885-10.298 5.451 0 9.886 4.62 9.886 10.298 0 3.414-1.883 7.507-4.796 10.426a.608.608 0 00.042.895c.879.721 1.748 1.244 2.578 1.559-.338.414-.543.95-.543 1.536a.59.59 0 00.434.577c.286.073.408.155.55.25.206.137.406.253.727.314v3.413c0 .84.426 1.284.738 1.609.28.291.403.434.403.768s-.124.477-.403.768c-.311.324-.738.768-.738 1.608 0 .84.426 1.284.738 1.609.28.29.403.434.403.768s-.124.476-.403.767c-.311.325-.738.768-.738 1.609 0 .328.256.594.57.594.316 0 .57-.266.57-.594 0-.334.124-.477.404-.768.311-.324.738-.768.738-1.608 0-.84-.427-1.284-.738-1.609-.28-.29-.403-.434-.403-.768s.123-.476.403-.768c.311-.324.738-.768.738-1.608 0-.84-.427-1.284-.738-1.608-.28-.292-.403-.434-.403-.769v-3.413c.32-.061.52-.177.727-.315.142-.094.264-.176.55-.25a.59.59 0 00.434-.576c0-.588-.207-1.126-.547-1.541 1.601-.611 3.342-1.983 4.846-3.878 2.185-2.751 3.438-5.98 3.438-8.859 0-5.754-4.494-10.436-10.018-10.436zm-9.45 24.714c.494 0 .916.329 1.074.787-.17.08-.29.16-.391.227-.174.116-.261.174-.683.174-.421 0-.508-.058-.682-.174a2.722 2.722 0 00-.391-.227c.158-.459.58-.787 1.073-.787zm-8.765-.174c-.174.116-.261.174-.683.174-.421 0-.508-.058-.682-.174a2.74 2.74 0 00-.392-.227c.159-.459.58-.787 1.074-.787.494 0 .916.328 1.074.787-.17.08-.291.16-.391.227zm-2.26-14.242c0 3.17 1.381 6.727 3.79 9.76.286.36.58.703.88 1.027-1.118.811-2.2 1.253-3.093 1.253-1.63 0-3.868-1.492-5.701-3.8-1.99-2.505-3.177-5.533-3.177-8.102 0-5.099 3.983-9.248 8.878-9.248.802 0 1.589.11 2.35.328-2.4 2.109-3.928 5.263-3.928 8.782zM30.441 25.95c-.174.116-.261.174-.682.174-.422 0-.51-.058-.683-.174a2.785 2.785 0 00-.391-.227c.158-.459.58-.787 1.074-.787.493 0 .915.328 1.073.787a2.8 2.8 0 00-.39.227zm5.02-6.002c-1.834 2.308-4.072 3.8-5.702 3.8-.894 0-1.976-.441-3.094-1.252a19.063 19.063 0 003.142-4.631c1-2.081 1.53-4.21 1.53-6.157 0-3.52-1.527-6.674-3.928-8.782a8.53 8.53 0 012.35-.328c4.895 0 8.877 4.149 8.877 9.248 0 2.569-1.187 5.597-3.176 8.102z" fill="#fff"/></svg>