<svg width="41" height="45" fill="none" xmlns="http://www.w3.org/2000/svg"><path d="M2.524 12.352c.362.213.582.341.704.762a1.317 1.317 0 01-.171 1.058c-.174.297-.286.63-.327.977a2.6 2.6 0 00.084 1.035c.098.334.262.642.481.901.22.26.488.466.789.604.363.214.582.343.705.765a1.313 1.313 0 01-.171 1.055 2.643 2.643 0 00-.242 2.014.652.652 0 00.145.259.604.604 0 00.24.16.562.562 0 00.542-.094l4.283-3.406c.324.49.784.858 1.316 1.05a2.48 2.48 0 001.64.019l.29-.097.792-.266 3.495-1.174.695-.233 3.595-1.206.384-.128 4.01-1.346a2.67 2.67 0 001.336-1.019 2.98 2.98 0 00.523-1.664l5.329.178h.018a.567.567 0 00.27-.069.61.61 0 00.213-.193.667.667 0 00.089-.571c-.1-.333-.266-.64-.485-.899a2.323 2.323 0 00-.786-.607c-.362-.214-.582-.343-.705-.764a1.314 1.314 0 01.172-1.057 2.589 2.589 0 00.243-2.012 2.47 2.47 0 00-.481-.9 2.273 2.273 0 00-.79-.604c-.362-.213-.581-.342-.704-.762a1.313 1.313 0 01.173-1.057c.172-.297.283-.63.325-.978.042-.347.015-.7-.08-1.034a.652.652 0 00-.146-.26.594.594 0 00-.24-.158.56.56 0 00-.543.096l-4.281 3.402a2.682 2.682 0 00-1.317-1.05 2.49 2.49 0 00-1.642-.021L16.78 4.907l-1.066.358-2.29.768-2 .67-2.39.804a2.66 2.66 0 00-1.338 1.018 2.971 2.971 0 00-.521 1.668l-5.332-.178a.557.557 0 00-.277.061.6.6 0 00-.219.192.685.685 0 00-.095.579c.101.333.266.64.485.9.22.259.487.465.787.605zm10.555-4.857l.931 10.177-.831.279-.931-10.178.799-.268.031-.01zm8.677 7.579l-.93-10.179.832-.279.93 10.179-.501.168-.331.11zm-1.169.393l-1.119.376-.932-10.18 1.122-.376.93 10.18zm-4.05-9.13l.831-.28.932 10.178-.834.28-.93-10.178zm-.24 10.57l-1.12.376-.93-10.18 1.121-.377.93 10.181zM28.902 4.501c.1.333.266.639.485.898.219.26.487.465.786.605.363.213.582.342.705.763a1.314 1.314 0 01-.172 1.057 2.587 2.587 0 00-.322.978c-.042.347-.015.7.08 1.034a2.4 2.4 0 00.407.809c.184.238.411.434.667.578l-4.115-.138-1.681-5.746 3.302-2.626a2.479 2.479 0 00-.142 1.788zm-5.816-.29c.31 0 .612.106.862.302.25.197.434.473.527.79L26.4 11.88v.003a1.66 1.66 0 01-.1 1.188 1.487 1.487 0 01-.854.765l-1.689.568-.928-10.165c.085-.018.172-.028.258-.029zM8.536 9.495c.088-.182.209-.343.356-.475.147-.131.317-.23.5-.29l1.688-.567.93 10.157c-.348.07-.707 0-1.01-.195a1.542 1.542 0 01-.639-.862L8.44 10.69l-.002-.007a1.654 1.654 0 01.099-1.185v-.001zm-1.12 1.99l1.68 5.746-3.306 2.63a2.48 2.48 0 00.143-1.791 2.52 2.52 0 00-.485-.899 2.323 2.323 0 00-.786-.606c-.363-.213-.582-.343-.705-.764a1.318 1.318 0 01.171-1.058 2.58 2.58 0 00.323-.977 2.638 2.638 0 00-.08-1.034 2.38 2.38 0 00-.405-.807 2.205 2.205 0 00-.665-.576l4.115.135zM38.839 22.12c-1.152-1.327-2.691-2.195-4.365-2.462a7.042 7.042 0 00-4.845.996 1.533 1.533 0 00-1.962.186 1.77 1.77 0 00-.499.978 1.84 1.84 0 00.16 1.1 8.365 8.365 0 00-1.34 4.212 8.446 8.446 0 00.972 4.325l-10.012 9.861a.663.663 0 00-.192.446.67.67 0 00.158.46l1.39 1.621a.603.603 0 00.19.148.567.567 0 00.227.059h.025c.15 0 .295-.06.405-.17l10.012-9.865a7.118 7.118 0 003.942 1.402 7.058 7.058 0 004.03-1.08c.237.163.51.256.791.27h.069a1.55 1.55 0 00.798-.22 1.68 1.68 0 00.593-.614 1.833 1.833 0 00.046-1.707 8.402 8.402 0 001.33-5.084c-.107-1.807-.785-3.521-1.923-4.861zm-.882.87a6.932 6.932 0 011.601 3.903 7.075 7.075 0 01-.923 4.147l-8.115-9.45a5.889 5.889 0 013.938-.638c1.342.252 2.57.967 3.499 2.037zM18.778 42.502l-.58-.675 9.45-9.307c.09.118.181.236.277.349.096.112.2.22.302.325l-9.449 9.308zm10.714-9.82a6.195 6.195 0 01-.685-.683 6.54 6.54 0 01-.582-.79 7.026 7.026 0 01-1.05-3.615 7.048 7.048 0 01.951-3.646l8.114 9.45a5.9 5.9 0 01-3.472.707 6.033 6.033 0 01-3.276-1.422zm8.791.522a.411.411 0 01-.308.12.402.402 0 01-.162-.041.429.429 0 01-.135-.105l-.073-.085-.002-.003-9.15-10.656a.488.488 0 01-.078-.495.452.452 0 01.157-.2.407.407 0 01.235-.075h.018a.426.426 0 01.297.147l.069.08.007.01 9.075 10.566.075.087a.479.479 0 01-.026.648l.001.002zm-18.792-6.128l4.289-2.293a.611.611 0 00.212-.19.666.666 0 00.095-.565.656.656 0 00-.136-.257 1.746 1.746 0 00-1.111-.604.576.576 0 01-.24-.058.675.675 0 01-.33-.38.706.706 0 01-.036-.264 2.01 2.01 0 00-.48-1.233 1.77 1.77 0 00-1.11-.607.595.595 0 01-.24-.062.633.633 0 01-.199-.155.717.717 0 01-.167-.485 1.969 1.969 0 00-.479-1.229.592.592 0 00-.228-.165.572.572 0 00-.534.06.624.624 0 00-.192.211l-2.462 4.4c-2.352-.586-5.455.46-7.956 2.94-2.501 2.482-3.712 5.718-3.346 8.274l-4.288 2.29a.611.611 0 00-.212.188.686.686 0 00.04.821c.29.34.685.556 1.111.607a.572.572 0 01.24.06.61.61 0 01.197.155.699.699 0 01.168.485c.018.458.189.895.48 1.232.29.336.684.552 1.11.607a.581.581 0 01.24.06.62.62 0 01.2.157.695.695 0 01.167.485c.017.459.187.895.48 1.23a.602.602 0 00.2.153.565.565 0 00.562-.047.623.623 0 00.192-.212l2.457-4.4c.44.11.89.165 1.342.165 2.114 0 4.569-1.074 6.618-3.106 2.5-2.48 3.71-5.712 3.346-8.268zM6.815 36.068l-.003-.005c-.235-.497 1.087-3.223 4.36-6.47 3.21-3.183 5.505-4.208 6.184-4.208a.311.311 0 01.16.033l.004.005c.234.499-1.088 3.224-4.36 6.47-3.55 3.522-5.98 4.402-6.345 4.175zM18.962 20.66a1.9 1.9 0 00.365.62c.29.34.684.556 1.11.608a.593.593 0 01.24.06c.076.037.143.09.2.155a.716.716 0 01.166.485 2 2 0 00.481 1.236c.155.183.343.33.552.435l-2.915 1.56a4.141 4.141 0 00-1.873-2.166l1.674-2.993zm-9.96 6.422c1.831-1.815 3.995-2.791 5.792-2.791.405-.003.809.053 1.2.165-1.839.77-4.146 2.718-5.636 4.195a25.055 25.055 0 00-3.788 4.666c-.2.334-.381.68-.542 1.037-.394-2.136.708-5.025 2.975-7.272zM5.37 40.826a1.9 1.9 0 00-.364-.624 1.753 1.753 0 00-1.11-.607.597.597 0 01-.24-.06.636.636 0 01-.2-.156.72.72 0 01-.168-.486 1.978 1.978 0 00-.48-1.23 1.746 1.746 0 00-.549-.437l2.916-1.557a4.2 4.2 0 001.865 2.168l-1.67 2.989zm9.961-6.423c-2.263 2.245-5.033 3.2-6.992 2.62a9.152 9.152 0 001-.502 23.986 23.986 0 004.636-3.687 25.064 25.064 0 003.788-4.666c.2-.334.381-.68.542-1.037.394 2.136-.708 5.025-2.974 7.272z" fill="#fff"/></svg>