<svg width="41" height="41" fill="none" xmlns="http://www.w3.org/2000/svg"><path d="M17.228 14.94c0 1.126 1.106 2.037 2.617 2.244v.635a5.761 5.761 0 01-2.578-.914l-.33-.22-.725 1.088.33.22a7.112 7.112 0 003.957 1.199 7.116 7.116 0 003.958-1.199l.33-.22-.726-1.088-.33.22a5.76 5.76 0 01-2.577.914v-.635c1.51-.207 2.616-1.118 2.616-2.244 0-1.284-1.436-2.29-3.27-2.29s-3.272 1.006-3.272 2.29zm3.271-.981c1.123 0 1.962.518 1.962.98 0 .464-.839.982-1.962.982s-1.962-.518-1.962-.981c0-.463.839-.981 1.962-.981zm-3.923-1.309c.722 0 1.308-.878 1.308-1.962s-.586-1.962-1.308-1.962c-.723 0-1.308.878-1.308 1.962s.585 1.962 1.308 1.962zm7.849 0c.723 0 1.309-.878 1.309-1.962s-.586-1.962-1.309-1.962c-.722 0-1.308.878-1.308 1.962s.586 1.962 1.308 1.962z" fill="#fff"/><path d="M36.2 27.041c-.549 0-1.077.146-1.57.412a15.113 15.113 0 00-5.059-7.122l-1.465-1.14c1.807-1.612 2.86-3.876 2.86-6.54 0-.69-.069-1.39-.202-2.087 2.365-.512 4.127-2.625 4.127-5.109A5.24 5.24 0 0029.658.222a5.221 5.221 0 00-4.24 2.167C23.968 1.448 22.305.876 20.5.876c-1.804 0-3.468.572-4.917 1.513a5.22 5.22 0 00-4.24-2.167A5.24 5.24 0 006.11 5.455c0 2.484 1.762 4.596 4.126 5.11a11.208 11.208 0 00-.202 2.085c0 2.665 1.054 4.93 2.861 6.541l-1.465 1.14a15.114 15.114 0 00-5.06 7.122 3.288 3.288 0 00-1.568-.412c-2.568 0-4.58 3.017-4.58 6.868 0 3.85 2.01 6.866 4.64 6.866h.004l.943-.095a21.82 21.82 0 0010.228-3.773c1.271.394 2.757.6 4.463.6 1.707 0 3.193-.206 4.464-.6a21.813 21.813 0 0010.229 3.773l1.006.098c2.568 0 4.58-3.017 4.58-6.869 0-3.851-2.012-6.868-4.58-6.868zm-7.432-5.678a13.83 13.83 0 014.768 6.947c-.648.69-1.176 1.63-1.512 2.755l-1.773-.591c.036-.369.061-.747.061-1.143 0-3.348-1.366-6.738-3.614-9.112.112-.067.22-.138.33-.21l1.74 1.354zm.89-19.833a3.929 3.929 0 013.925 3.925 3.936 3.936 0 01-3.136 3.841c-.706-2.346-2.102-4.564-3.974-6.134a3.916 3.916 0 013.185-1.632zM7.418 5.455a3.929 3.929 0 013.925-3.925c1.276 0 2.453.615 3.185 1.632-1.872 1.57-3.268 3.788-3.974 6.134a3.936 3.936 0 01-3.136-3.84zm3.925 7.195c0-4.84 4-10.465 9.157-10.465s9.158 5.626 9.158 10.465c0 5.423-4.599 7.85-9.158 7.85-4.558 0-9.157-2.427-9.157-7.85zm.89 8.713l1.74-1.354c.11.071.218.143.33.21-2.245 2.375-3.614 5.783-3.614 9.112 0 .396.024.774.061 1.143l-1.773.59c-.336-1.123-.864-2.063-1.513-2.754a13.834 13.834 0 014.768-6.947zM1.53 33.909c0-.537.05-1.059.138-1.554a3.931 3.931 0 013.133 3.844v3.27c-1.773 0-3.271-2.546-3.271-5.56zm4.579 5.412v-3.122a5.24 5.24 0 00-4.107-5.108c.578-1.625 1.626-2.742 2.799-2.742 1.344 0 2.61 1.52 3.077 3.695a.653.653 0 00.846.483l2.251-.75c.511 2.061 1.712 3.59 3.583 4.544a20.5 20.5 0 01-8.45 3zm5.887-9.99c0-3.14 1.354-6.343 3.54-8.484 1.446.618 3.119.961 4.963.961 1.844 0 3.516-.343 4.962-.96 2.19 2.14 3.542 5.325 3.542 8.483 0 4.621-2.781 6.868-8.504 6.868-5.722 0-8.503-2.247-8.503-6.868zm18.027 2.447l2.252.75a.651.651 0 00.846-.483c.467-2.176 1.733-3.696 3.077-3.696 1.172 0 2.221 1.117 2.8 2.742a5.24 5.24 0 00-4.108 5.108v3.122a20.507 20.507 0 01-8.45-3c1.872-.954 3.073-2.483 3.584-4.543zm6.24 7.695l-.065-.007V36.2a3.931 3.931 0 013.133-3.844c.088.495.138 1.017.138 1.554 0 3.014-1.498 5.56-3.206 5.564z" fill="#fff"/><path d="M20.498 27.041c-3.3 0-5.887 1.724-5.887 3.925 0 2.2 2.586 3.925 5.887 3.925 3.302 0 5.887-1.725 5.887-3.925 0-2.2-2.585-3.925-5.887-3.925zm0 6.541c-2.481 0-4.578-1.198-4.578-2.616 0-1.418 2.097-2.617 4.578-2.617 2.482 0 4.58 1.199 4.58 2.617s-2.098 2.616-4.58 2.616z" fill="#fff"/></svg>