<svg width="31" height="46" fill="none" xmlns="http://www.w3.org/2000/svg"><path d="M14.988 22.66c-1.756-.99-4.056-.761-5.561.686-1.775 1.706-1.809 4.5 0 6.238l4.637 4.46c.255.246.59.369.924.369.334 0 .668-.123.924-.368l4.637-4.461c1.775-1.706 1.808-4.5 0-6.238-1.505-1.447-3.805-1.677-5.561-.687zm3.714 5.147l-3.714 3.572-3.714-3.573a1.847 1.847 0 010-2.683 2.03 2.03 0 012.79 0c.51.49 1.338.49 1.848 0a2.03 2.03 0 012.79 0 1.847 1.847 0 010 2.684z" fill="#fff"/><path d="M29.313 9.326h-4.28V2.278c0-.907-.91-1.535-1.762-1.216L.935 9.409a1.301 1.301 0 00-.846 1.216v33.391a1.3 1.3 0 001.303 1.299h27.92c.72 0 1.304-.581 1.304-1.299v-33.39c0-.718-.583-1.3-1.303-1.3zm-6.888 0H8.58l13.845-5.174v5.174zm5.584 33.391H2.696V11.924h25.313v30.793z" fill="#fff"/></svg>