<svg width="55" height="55" fill="none" xmlns="http://www.w3.org/2000/svg"><circle cx="27.5" cy="27.5" r="27.5" fill="url(#paint0_linear)"/><path d="M44.595 28.025l-1.137-1.137a6.976 6.976 0 00-3.435-1.883 8.85 8.85 0 00-.529-1.076 4.085 4.085 0 00-.866-2.106 4.078 4.078 0 00-5.59-5.2 7.01 7.01 0 00-1.519-4.802L30.06 9.997a.583.583 0 00-.91 0l-1.46 1.824a7.022 7.022 0 00-1.14 2.046 8.959 8.959 0 00-1.335.047 6.98 6.98 0 00-2.922-.637h-1.435a.583.583 0 00-.583.583v1.608c0 .214.01.427.03.64a8.876 8.876 0 00-2.721 4.597l.033.007a4.074 4.074 0 00-.62 3.8l-1.888 9.763a.582.582 0 00-.648.435l-.505 2.022-1.446.482a.585.585 0 00-.227.965l.205.206-.992.496a3.107 3.107 0 00.435 5.733 3.105 3.105 0 003.732-1.566l.496-.992.205.205a.582.582 0 00.966-.228l.482-1.446 2.021-.505a.582.582 0 00.436-.647l11.645-2.252a8.77 8.77 0 003.377-.693l-.004-.01c.856.509 1.81.828 2.798.938l2.322.258a.582.582 0 00.644-.644l-.258-2.322a6.972 6.972 0 00-.995-2.896l.073-.011a6.961 6.961 0 003.71-1.939l1.014-1.014a.583.583 0 000-.825zM30.2 19.74a4.079 4.079 0 001.69 6.764 3.507 3.507 0 01-1.38.174 4.062 4.062 0 00-1.637-.548 3.5 3.5 0 01-.41-.31 4.058 4.058 0 00-.473-4.754 3.52 3.52 0 012.21-1.326zm1.153 13.945a1.75 1.75 0 01-.584-.1 1.748 1.748 0 00.58-2.955 2.325 2.325 0 00-.07-.441 1.75 1.75 0 11.073 3.497zm-11.662-8.163c0-.067.003-.134.007-.2.361.406.853.674 1.39.756a2.914 2.914 0 003.37 1.694 2.914 2.914 0 01-4.767-2.25zm4.082-2.332a1.75 1.75 0 11-.584 3.398 1.747 1.747 0 00.58-2.956 2.325 2.325 0 00-.07-.44l.074-.003zm-1.166 1.166a.583.583 0 110 1.165.583.583 0 010-1.165zm-1.743.43a1.165 1.165 0 111.59-1.59 1.752 1.752 0 00-1.59 1.59zm5.862 5.569a4.04 4.04 0 00-.585 1.627 2.914 2.914 0 114.972-2.951c-.155.012-.31.037-.46.074a2.33 2.33 0 00-3.927 1.25zm3.46 2.164a.583.583 0 110-1.166.583.583 0 010 1.166zm-1.165-2.915a1.166 1.166 0 011.012.59 1.752 1.752 0 00-1.588 1.589 1.165 1.165 0 01.576-2.18zm4.081-4.082a2.914 2.914 0 01-2.25-4.767 2.913 2.913 0 001.694 3.37c.082.537.35 1.029.757 1.39a2.973 2.973 0 01-.2.007zm.584-2.332a.584.584 0 110-1.168.584.584 0 010 1.168zm1.166 1.749a1.166 1.166 0 01-1.013-.59 1.752 1.752 0 001.589-1.59 1.164 1.164 0 01-.576 2.18zm.581-3.425a2.325 2.325 0 00-.441-.07 1.747 1.747 0 00-2.956.58 1.75 1.75 0 113.397-.51zm-7.578 2.259a2.932 2.932 0 01-1.213 2.363 4.075 4.075 0 00.033-.928 2.92 2.92 0 00-1.853-2.988 4.034 4.034 0 00-.565-1.281 2.914 2.914 0 013.598 2.834zm-4.322-1.74c-.155.013-.31.038-.46.075a2.33 2.33 0 00-3.927 1.25 4.04 4.04 0 00-.585 1.627 2.916 2.916 0 114.972-2.951zm-.926 7.57a4.052 4.052 0 001.886-.463 4.079 4.079 0 00.429 3.12l-2.674-2.673c.119.01.238.017.359.017zm3.003 4.995a8.804 8.804 0 003.108 2.015l-9.306 1.8-2.103-2.104 5.006-5.006 3.295 3.295zm4.577.837a2.919 2.919 0 01-2.908-3.116c.36.406.852.674 1.39.757a2.913 2.913 0 003.37 1.693 2.903 2.903 0 01-1.852.666zm4.069-3.23a2.92 2.92 0 00-1.853-2.988 4.034 4.034 0 00-.566-1.281 2.913 2.913 0 012.385 5.197 4.102 4.102 0 00.034-.928zm1.179-4.934a2.916 2.916 0 01-1.796-.619 4.051 4.051 0 001.628-.585 2.33 2.33 0 001.25-3.926c.036-.151.061-.306.074-.461a2.914 2.914 0 01-1.156 5.591zm2.332-6.997c0 .23-.027.459-.081.682a4.034 4.034 0 00-1.281-.566 2.92 2.92 0 00-2.989-1.852 4.103 4.103 0 00-.928.033 2.914 2.914 0 015.28 1.703zM28.6 12.55l1.004-1.255 1.004 1.255a5.84 5.84 0 011.078 5.153c-.21.257-.388.538-.53.838a4.62 4.62 0 00-.97.02v-4.118h-1.165v4.425a4.702 4.702 0 00-.807.423 5.811 5.811 0 01.386-6.741zm-7.16 1.893h.852c1.424-.002 2.8.52 3.865 1.466a6.966 6.966 0 00.526 2.952l-2.61-2.61-.825.825 2.758 2.757a4.068 4.068 0 00-2.474.109 5.863 5.863 0 01-2.092-4.474v-1.025zm-.868 3.035a7.09 7.09 0 00.744 1.657 4.032 4.032 0 00-2.066.303 7.744 7.744 0 011.322-1.96zm-2.494 8.7a8.783 8.783 0 001.867 2.755l1.545 1.545-5.006 5.007-.354-.354 1.766-9.133c.059.062.12.122.182.18zm-6.061 13.746l1.34-.67.02.02-2.154 3.384a1.939 1.939 0 01.794-2.734zm2.602 2.602a1.938 1.938 0 01-2.51.91l2.112-3.317 1.068 1.068-.67 1.339zm2.598-2.992a.583.583 0 00-.412.381l-.284.854-2.748-2.747.855-.285a.582.582 0 00.38-.412l.334-1.333 3.209 3.209-1.334.333zm15.093-3.53c.454-.278.85-.641 1.165-1.07.215.259.448.501.698.726a7.599 7.599 0 01-1.863.344zm5.903.255a5.83 5.83 0 01-3.713-1.922 4.115 4.115 0 001.274-1.113l1.398 1.398.825-.824-1.642-1.642a3.88 3.88 0 00.161-.569 6.947 6.947 0 001.931.325 5.806 5.806 0 011.186 2.927l.177 1.597-1.597-.177zm4.542-7.22a5.866 5.866 0 01-6.173 1.336 4.047 4.047 0 00-.376-1.354H40.1v-1.167h-2.565a4.108 4.108 0 001.615-1.812 5.81 5.81 0 013.482 1.67l.725.726-.602.601z" fill="#fff"/><defs><linearGradient id="paint0_linear" x1="27.5" y1="0" x2="27.5" y2="55" gradientUnits="userSpaceOnUse"><stop stop-color="#F6B8D3"/><stop offset="1" stop-color="#DD83A7"/></linearGradient></defs></svg>